<mxfile host="65bd71144e">
    <diagram id="CZib9DHG7bNLoSJY2IGV" name="Page-1">
        <mxGraphModel dx="8960" dy="3409" grid="0" gridSize="10" guides="1" tooltips="1" connect="1" arrows="1" fold="1" page="0" pageScale="1" pageWidth="1169" pageHeight="827" background="#0E0D30" math="0" shadow="0">
            <root>
                <mxCell id="0"/>
                <mxCell id="1" parent="0"/>
                <mxCell id="node13" value="&lt;p style=&quot;margin: 4px 0px 0px; text-align: center; font-size: 45px;&quot;&gt;&lt;b style=&quot;&quot;&gt;&lt;font style=&quot;font-size: 45px;&quot;&gt;Catboost_Selection&lt;/font&gt;&lt;/b&gt;&lt;/p&gt;&lt;p style=&quot;margin: 0px 0px 0px 4px; line-height: 1.6; font-size: 45px;&quot;&gt;&lt;br&gt;&lt;/p&gt;" style="verticalAlign=top;align=left;overflow=fill;fontSize=14;fontFamily=Helvetica;html=1;rounded=1;shadow=0;comic=0;labelBackgroundColor=none;strokeWidth=5;" parent="1" vertex="1">
                    <mxGeometry x="-3421" y="244" width="470" height="60" as="geometry"/>
                </mxCell>
                <mxCell id="8" style="edgeStyle=none;html=1;entryX=0.5;entryY=0;entryDx=0;entryDy=0;strokeColor=default;strokeWidth=5;fontSize=21;fontColor=#000000;exitX=0.128;exitY=1.003;exitDx=0;exitDy=0;exitPerimeter=0;" parent="1" source="node9" target="node18" edge="1">
                    <mxGeometry relative="1" as="geometry">
                        <Array as="points">
                            <mxPoint x="-3139" y="-45"/>
                            <mxPoint x="-3461" y="-45"/>
                            <mxPoint x="-3713" y="-45"/>
                        </Array>
                    </mxGeometry>
                </mxCell>
                <mxCell id="9" style="edgeStyle=none;html=1;entryX=0.5;entryY=0;entryDx=0;entryDy=0;strokeColor=default;strokeWidth=6;fontSize=21;fontColor=#000000;" parent="1" target="node16" edge="1">
                    <mxGeometry relative="1" as="geometry">
                        <mxPoint x="-3031" y="-85" as="sourcePoint"/>
                        <Array as="points">
                            <mxPoint x="-3031" y="5"/>
                            <mxPoint x="-3187" y="5"/>
                        </Array>
                    </mxGeometry>
                </mxCell>
                <mxCell id="10" style="edgeStyle=none;html=1;entryX=0.089;entryY=-0.005;entryDx=0;entryDy=0;strokeColor=default;strokeWidth=6;fontSize=21;fontColor=#000000;exitX=0.864;exitY=0.996;exitDx=0;exitDy=0;exitPerimeter=0;entryPerimeter=0;" parent="1" source="node9" target="node14" edge="1">
                    <mxGeometry relative="1" as="geometry">
                        <Array as="points">
                            <mxPoint x="-2782" y="-15"/>
                            <mxPoint x="-2691" y="-15"/>
                        </Array>
                    </mxGeometry>
                </mxCell>
                <mxCell id="11" style="edgeStyle=none;html=1;exitX=0.934;exitY=0.996;exitDx=0;exitDy=0;entryX=0.25;entryY=0;entryDx=0;entryDy=0;strokeColor=default;strokeWidth=6;fontSize=21;fontColor=#000000;exitPerimeter=0;" parent="1" source="node9" target="node12" edge="1">
                    <mxGeometry relative="1" as="geometry">
                        <Array as="points">
                            <mxPoint x="-2746" y="-45"/>
                            <mxPoint x="-2063" y="-45"/>
                        </Array>
                    </mxGeometry>
                </mxCell>
                <mxCell id="13" style="edgeStyle=none;html=1;entryX=0.5;entryY=0;entryDx=0;entryDy=0;strokeColor=default;strokeWidth=6;fontSize=21;fontColor=#000000;" parent="1" target="node15" edge="1">
                    <mxGeometry relative="1" as="geometry">
                        <mxPoint x="-2881" y="-85" as="sourcePoint"/>
                        <Array as="points">
                            <mxPoint x="-2881" y="195"/>
                            <mxPoint x="-2524" y="195"/>
                        </Array>
                    </mxGeometry>
                </mxCell>
                <mxCell id="14" style="edgeStyle=none;html=1;entryX=0.5;entryY=0;entryDx=0;entryDy=0;strokeColor=default;strokeWidth=6;fontSize=21;fontColor=#000000;" parent="1" target="node13" edge="1">
                    <mxGeometry relative="1" as="geometry">
                        <mxPoint x="-2951" y="-95" as="sourcePoint"/>
                        <Array as="points">
                            <mxPoint x="-2951" y="155"/>
                            <mxPoint x="-3186" y="155"/>
                        </Array>
                    </mxGeometry>
                </mxCell>
                <mxCell id="15" style="edgeStyle=none;html=1;entryX=0.5;entryY=0;entryDx=0;entryDy=0;strokeColor=default;strokeWidth=6;fontSize=21;fontColor=#000000;" parent="1" target="node10" edge="1">
                    <mxGeometry relative="1" as="geometry">
                        <mxPoint x="-2911" y="-85" as="sourcePoint"/>
                        <Array as="points">
                            <mxPoint x="-2911" y="275"/>
                            <mxPoint x="-2801" y="275"/>
                        </Array>
                    </mxGeometry>
                </mxCell>
                <mxCell id="16" style="edgeStyle=none;html=1;entryX=0.5;entryY=0;entryDx=0;entryDy=0;strokeColor=default;strokeWidth=6;fontSize=21;fontColor=#000000;" parent="1" target="node17" edge="1">
                    <mxGeometry relative="1" as="geometry">
                        <mxPoint x="-3076" y="-85" as="sourcePoint"/>
                        <Array as="points">
                            <mxPoint x="-3076" y="-15"/>
                            <mxPoint x="-3441" y="-15"/>
                            <mxPoint x="-3441" y="165"/>
                            <mxPoint x="-3717" y="165"/>
                        </Array>
                    </mxGeometry>
                </mxCell>
                <mxCell id="117" style="edgeStyle=none;rounded=1;sketch=0;hachureGap=4;jiggle=2;curveFitting=1;html=1;entryX=0.5;entryY=0;entryDx=0;entryDy=0;strokeColor=#FFFFFF;strokeWidth=6;fontFamily=Architects Daughter;fontSource=https%3A%2F%2Ffonts.googleapis.com%2Fcss%3Ffamily%3DArchitects%2BDaughter;fontSize=45;fontColor=#99FF99;startArrow=none;startFill=0;endArrow=classic;endFill=1;exitX=0.75;exitY=1;exitDx=0;exitDy=0;" parent="1" source="node9" target="node11" edge="1">
                    <mxGeometry relative="1" as="geometry">
                        <Array as="points">
                            <mxPoint x="-2840" y="150"/>
                            <mxPoint x="-1967" y="160"/>
                        </Array>
                    </mxGeometry>
                </mxCell>
                <mxCell id="node9" value="&lt;p style=&quot;margin: 4px 0px 0px; text-align: center; font-size: 45px;&quot;&gt;&lt;b style=&quot;background-color: initial;&quot;&gt;&lt;font color=&quot;#ffffff&quot;&gt;Feature Selection&lt;/font&gt;&lt;/b&gt;&lt;br&gt;&lt;/p&gt;&lt;p style=&quot;margin: 4px 0px 0px; text-align: center; font-size: 45px;&quot;&gt;&lt;b style=&quot;&quot;&gt;&lt;font style=&quot;font-size: 45px;&quot; color=&quot;#ffffff&quot;&gt;Abstract Class&lt;/font&gt;&lt;/b&gt;&lt;/p&gt;" style="verticalAlign=top;align=left;overflow=fill;fontSize=14;fontFamily=Helvetica;html=1;rounded=1;shadow=0;comic=0;labelBackgroundColor=none;strokeWidth=5;imageAspect=1;rotatable=0;glass=0;fillColor=default;labelBorderColor=none;spacing=10;spacingTop=0;spacingRight=0;spacingLeft=0;perimeterSpacing=0;" parent="1" vertex="1">
                    <mxGeometry x="-3201" y="-213" width="485" height="130" as="geometry"/>
                </mxCell>
                <mxCell id="node18" value="&lt;p style=&quot;margin:0px;margin-top:4px;text-align:center;&quot;&gt;&lt;b&gt;&lt;font style=&quot;font-size: 45px;&quot;&gt;GBM_Selection&lt;/font&gt;&lt;/b&gt;&lt;/p&gt;" style="verticalAlign=top;align=left;overflow=fill;fontSize=14;fontFamily=Helvetica;html=1;rounded=1;shadow=0;comic=0;labelBackgroundColor=none;strokeWidth=5;" parent="1" vertex="1">
                    <mxGeometry x="-3931" y="45" width="435" height="60" as="geometry"/>
                </mxCell>
                <mxCell id="node14" value="&lt;p style=&quot;margin: 4px 0px 0px; text-align: center; font-size: 45px;&quot;&gt;&lt;b style=&quot;&quot;&gt;&lt;font style=&quot;font-size: 45px;&quot;&gt;Lasso_Selection&lt;/font&gt;&lt;/b&gt;&lt;/p&gt;&lt;p style=&quot;margin: 0px 0px 0px 4px; line-height: 1.6; font-size: 45px;&quot;&gt;&lt;br&gt;&lt;/p&gt;" style="verticalAlign=top;align=left;overflow=fill;fontSize=14;fontFamily=Helvetica;html=1;rounded=1;shadow=0;comic=0;labelBackgroundColor=none;strokeWidth=5;" parent="1" vertex="1">
                    <mxGeometry x="-2731" y="45" width="444" height="60" as="geometry"/>
                </mxCell>
                <mxCell id="node11" value="&lt;p style=&quot;margin: 4px 0px 0px; text-align: center; font-size: 45px;&quot;&gt;&lt;b style=&quot;&quot;&gt;&lt;font style=&quot;font-size: 45px;&quot;&gt;MRMR&lt;/font&gt;&lt;/b&gt;&lt;/p&gt;&lt;p style=&quot;margin: 0px 0px 0px 4px; line-height: 1.6; font-size: 45px;&quot;&gt;&lt;br&gt;&lt;/p&gt;" style="verticalAlign=top;align=left;overflow=fill;fontSize=14;fontFamily=Helvetica;html=1;rounded=1;shadow=0;comic=0;labelBackgroundColor=none;strokeWidth=5;" parent="1" vertex="1">
                    <mxGeometry x="-2151" y="244" width="368" height="60" as="geometry"/>
                </mxCell>
                <mxCell id="node12" value="&lt;p style=&quot;margin:0px;margin-top:4px;text-align:center;&quot;&gt;&lt;b style=&quot;font-size: 45px;&quot;&gt;PCA_Selection&lt;/b&gt;&lt;/p&gt;&lt;p style=&quot;margin:0 0 0 4px;line-height:1.6;&quot;&gt;&lt;br&gt;&lt;/p&gt;" style="verticalAlign=top;align=left;overflow=fill;fontSize=14;fontFamily=Helvetica;html=1;rounded=1;shadow=0;comic=0;labelBackgroundColor=none;strokeWidth=5;" parent="1" vertex="1">
                    <mxGeometry x="-2171" y="45" width="431" height="60" as="geometry"/>
                </mxCell>
                <mxCell id="node16" value="&lt;p style=&quot;margin: 4px 0px 0px; text-align: center; font-size: 45px;&quot;&gt;&lt;b style=&quot;&quot;&gt;&lt;font style=&quot;font-size: 45px;&quot;&gt;RFE_Selection&lt;/font&gt;&lt;/b&gt;&lt;/p&gt;&lt;p style=&quot;margin: 0px 0px 0px 4px; line-height: 1.6; font-size: 45px;&quot;&gt;&lt;br&gt;&lt;/p&gt;" style="verticalAlign=top;align=left;overflow=fill;fontSize=14;fontFamily=Helvetica;html=1;rounded=1;shadow=0;comic=0;labelBackgroundColor=none;strokeWidth=5;" parent="1" vertex="1">
                    <mxGeometry x="-3401" y="45" width="428" height="60" as="geometry"/>
                </mxCell>
                <mxCell id="node15" value="&lt;p style=&quot;margin:0px;margin-top:4px;text-align:center;&quot;&gt;&lt;b style=&quot;font-size: 45px;&quot;&gt;Rf_Selection&lt;/b&gt;&lt;/p&gt;&lt;p style=&quot;margin:0 0 0 4px;line-height:1.6;&quot;&gt;&lt;br&gt;&lt;/p&gt;" style="verticalAlign=top;align=left;overflow=fill;fontSize=14;fontFamily=Helvetica;html=1;rounded=1;shadow=0;comic=0;labelBackgroundColor=none;strokeWidth=5;" parent="1" vertex="1">
                    <mxGeometry x="-2731" y="244" width="414" height="60" as="geometry"/>
                </mxCell>
                <mxCell id="node10" value="&lt;p style=&quot;margin:0px;margin-top:4px;text-align:center;&quot;&gt;&lt;b style=&quot;font-size: 45px;&quot;&gt;Shap_Selection&lt;/b&gt;&lt;/p&gt;" style="verticalAlign=top;align=left;overflow=fill;fontSize=14;fontFamily=Helvetica;html=1;rounded=1;shadow=0;comic=0;labelBackgroundColor=none;strokeWidth=5;" parent="1" vertex="1">
                    <mxGeometry x="-3021" y="385" width="437" height="60" as="geometry"/>
                </mxCell>
                <mxCell id="node17" value="&lt;p style=&quot;margin: 4px 0px 0px; text-align: center; font-size: 45px;&quot;&gt;&lt;b style=&quot;&quot;&gt;&lt;font style=&quot;font-size: 45px;&quot;&gt;Xgb_Selection&lt;/font&gt;&lt;/b&gt;&lt;/p&gt;&lt;p style=&quot;margin: 0px 0px 0px 4px; line-height: 1.6; font-size: 45px;&quot;&gt;&lt;br&gt;&lt;/p&gt;" style="verticalAlign=top;align=left;overflow=fill;fontSize=14;fontFamily=Helvetica;html=1;rounded=1;shadow=0;comic=0;labelBackgroundColor=none;strokeWidth=5;" parent="1" vertex="1">
                    <mxGeometry x="-3927.5" y="244" width="428" height="60" as="geometry"/>
                </mxCell>
                <mxCell id="27" style="edgeStyle=none;rounded=1;sketch=0;hachureGap=4;jiggle=2;curveFitting=1;html=1;entryX=0.5;entryY=1;entryDx=0;entryDy=0;strokeColor=#66B2FF;strokeWidth=6;fontFamily=Architects Daughter;fontSource=https%3A%2F%2Ffonts.googleapis.com%2Fcss%3Ffamily%3DArchitects%2BDaughter;fontSize=45;fontColor=#66B2FF;startArrow=none;startFill=0;endArrow=classic;endFill=1;exitX=0.5;exitY=0;exitDx=0;exitDy=0;" parent="1" source="node1" target="node6" edge="1">
                    <mxGeometry relative="1" as="geometry">
                        <Array as="points">
                            <mxPoint x="-2125" y="-640"/>
                            <mxPoint x="-1885" y="-640"/>
                        </Array>
                    </mxGeometry>
                </mxCell>
                <mxCell id="34" style="edgeStyle=none;rounded=1;sketch=0;hachureGap=4;jiggle=2;curveFitting=1;html=1;entryX=0.5;entryY=1;entryDx=0;entryDy=0;strokeColor=#66B2FF;strokeWidth=6;fontFamily=Architects Daughter;fontSource=https%3A%2F%2Ffonts.googleapis.com%2Fcss%3Ffamily%3DArchitects%2BDaughter;fontSize=45;fontColor=#66B2FF;startArrow=none;startFill=0;endArrow=classic;endFill=1;exitX=0.839;exitY=0;exitDx=0;exitDy=0;exitPerimeter=0;" parent="1" source="node1" target="node7" edge="1">
                    <mxGeometry relative="1" as="geometry">
                        <mxPoint x="-1910" y="-400" as="sourcePoint"/>
                        <Array as="points">
                            <mxPoint x="-2002" y="-560"/>
                            <mxPoint x="-1880" y="-560"/>
                            <mxPoint x="-1160" y="-560"/>
                        </Array>
                    </mxGeometry>
                </mxCell>
                <mxCell id="35" style="edgeStyle=none;rounded=1;sketch=0;hachureGap=4;jiggle=2;curveFitting=1;html=1;entryX=0.5;entryY=0;entryDx=0;entryDy=0;strokeColor=#66B2FF;strokeWidth=6;fontFamily=Architects Daughter;fontSource=https%3A%2F%2Ffonts.googleapis.com%2Fcss%3Ffamily%3DArchitects%2BDaughter;fontSize=45;fontColor=#66B2FF;startArrow=none;startFill=0;endArrow=classic;endFill=1;" parent="1" source="node1" target="32" edge="1">
                    <mxGeometry relative="1" as="geometry">
                        <Array as="points">
                            <mxPoint x="-2125" y="-340"/>
                            <mxPoint x="-1870" y="-340"/>
                        </Array>
                    </mxGeometry>
                </mxCell>
                <mxCell id="36" style="edgeStyle=none;rounded=1;sketch=0;hachureGap=4;jiggle=2;curveFitting=1;html=1;entryX=0.5;entryY=0;entryDx=0;entryDy=0;strokeColor=#66B2FF;strokeWidth=6;fontFamily=Architects Daughter;fontSource=https%3A%2F%2Ffonts.googleapis.com%2Fcss%3Ffamily%3DArchitects%2BDaughter;fontSize=45;fontColor=#66B2FF;startArrow=none;startFill=0;endArrow=classic;endFill=1;exitX=0.844;exitY=1;exitDx=0;exitDy=0;exitPerimeter=0;" parent="1" source="node1" target="28" edge="1">
                    <mxGeometry relative="1" as="geometry">
                        <mxPoint x="-2080" y="-450" as="sourcePoint"/>
                        <Array as="points">
                            <mxPoint x="-2000" y="-420"/>
                            <mxPoint x="-1155" y="-420"/>
                        </Array>
                    </mxGeometry>
                </mxCell>
                <mxCell id="38" style="edgeStyle=none;rounded=1;sketch=0;hachureGap=4;jiggle=2;curveFitting=1;html=1;entryX=0.5;entryY=1;entryDx=0;entryDy=0;strokeColor=#66B2FF;strokeWidth=6;fontFamily=Architects Daughter;fontSource=https%3A%2F%2Ffonts.googleapis.com%2Fcss%3Ffamily%3DArchitects%2BDaughter;fontSize=45;fontColor=#66B2FF;startArrow=none;startFill=0;endArrow=classic;endFill=1;exitX=0.69;exitY=0;exitDx=0;exitDy=0;exitPerimeter=0;" parent="1" source="node1" target="37" edge="1">
                    <mxGeometry relative="1" as="geometry">
                        <mxPoint x="-2080" y="-510" as="sourcePoint"/>
                        <Array as="points">
                            <mxPoint x="-2056" y="-600"/>
                            <mxPoint x="-1810" y="-600"/>
                            <mxPoint x="-1535" y="-600"/>
                        </Array>
                    </mxGeometry>
                </mxCell>
                <mxCell id="40" style="edgeStyle=none;rounded=1;sketch=0;hachureGap=4;jiggle=2;curveFitting=1;html=1;entryX=0.5;entryY=0;entryDx=0;entryDy=0;strokeColor=#66B2FF;strokeWidth=6;fontFamily=Architects Daughter;fontSource=https%3A%2F%2Ffonts.googleapis.com%2Fcss%3Ffamily%3DArchitects%2BDaughter;fontSize=45;fontColor=#66B2FF;startArrow=none;startFill=0;endArrow=classic;endFill=1;exitX=0.694;exitY=1;exitDx=0;exitDy=0;exitPerimeter=0;" parent="1" source="node1" target="39" edge="1">
                    <mxGeometry relative="1" as="geometry">
                        <Array as="points">
                            <mxPoint x="-2055" y="-380"/>
                            <mxPoint x="-1505" y="-380"/>
                        </Array>
                    </mxGeometry>
                </mxCell>
                <mxCell id="node1" value="&lt;p style=&quot;margin:0px;margin-top:4px;text-align:center;&quot;&gt;&lt;b style=&quot;font-size: 45px;&quot;&gt;&lt;font color=&quot;#66b2ff&quot;&gt;Abstract Model&lt;/font&gt;&lt;/b&gt;&lt;/p&gt;" style="verticalAlign=top;align=left;overflow=fill;fontSize=14;fontFamily=Helvetica;html=1;rounded=1;shadow=0;comic=0;labelBackgroundColor=none;strokeWidth=6;strokeColor=#66B2FF;rotation=0;" parent="1" vertex="1">
                    <mxGeometry x="-2306.5" y="-520" width="363" height="60" as="geometry"/>
                </mxCell>
                <mxCell id="node7" value="&lt;p style=&quot;margin:0px;margin-top:4px;text-align:center;&quot;&gt;&lt;b&gt;&lt;font color=&quot;#66b2ff&quot; style=&quot;font-size: 45px;&quot;&gt;RandomForestModel&lt;/font&gt;&lt;/b&gt;&lt;/p&gt;" style="verticalAlign=top;align=left;overflow=fill;fontSize=14;fontFamily=Helvetica;html=1;rounded=1;shadow=0;comic=0;labelBackgroundColor=none;strokeWidth=6;strokeColor=#66B2FF;" parent="1" vertex="1">
                    <mxGeometry x="-1420" y="-750" width="520" height="60" as="geometry"/>
                </mxCell>
                <mxCell id="25" style="edgeStyle=none;rounded=0;sketch=0;hachureGap=4;jiggle=2;curveFitting=1;html=1;entryX=0;entryY=0.5;entryDx=0;entryDy=0;strokeColor=#66B2FF;strokeWidth=6;fontFamily=Architects Daughter;fontSource=https%3A%2F%2Ffonts.googleapis.com%2Fcss%3Ffamily%3DArchitects%2BDaughter;fontSize=45;fontColor=#000000;startArrow=none;startFill=0;endArrow=classic;endFill=1;fillColor=#1ba1e2;" parent="1" source="node8" target="node1" edge="1">
                    <mxGeometry relative="1" as="geometry"/>
                </mxCell>
                <mxCell id="node8" value="&lt;p style=&quot;margin:0px;margin-top:4px;text-align:center;&quot;&gt;&lt;b style=&quot;font-size: 45px;&quot;&gt;&lt;font color=&quot;#000000&quot;&gt;Model Selection&lt;/font&gt;&lt;/b&gt;&lt;/p&gt;" style="verticalAlign=top;align=left;overflow=fill;fontSize=14;fontFamily=Helvetica;html=1;rounded=1;shadow=0;comic=0;labelBackgroundColor=none;strokeWidth=1;fillColor=#1ba1e2;fontColor=#ffffff;strokeColor=#006EAF;rotation=0;" parent="1" vertex="1">
                    <mxGeometry x="-2800" y="-520" width="363" height="60" as="geometry"/>
                </mxCell>
                <mxCell id="node6" value="&lt;p style=&quot;margin:0px;margin-top:4px;text-align:center;&quot;&gt;&lt;b&gt;&lt;font color=&quot;#66b2ff&quot; style=&quot;font-size: 45px;&quot;&gt;XGBoostModel&lt;/font&gt;&lt;/b&gt;&lt;/p&gt;" style="verticalAlign=top;align=left;overflow=fill;fontSize=14;fontFamily=Helvetica;html=1;rounded=1;shadow=0;comic=0;labelBackgroundColor=none;strokeWidth=5;strokeColor=#66B2FF;" parent="1" vertex="1">
                    <mxGeometry x="-2090" y="-750" width="410" height="60" as="geometry"/>
                </mxCell>
                <mxCell id="5" style="edgeStyle=none;html=1;strokeColor=#FFFF00;strokeWidth=6;entryX=0.5;entryY=0;entryDx=0;entryDy=0;" parent="1" source="node0" target="18" edge="1">
                    <mxGeometry relative="1" as="geometry">
                        <mxPoint x="-2970" y="-90" as="targetPoint"/>
                        <Array as="points"/>
                    </mxGeometry>
                </mxCell>
                <mxCell id="24" style="edgeStyle=none;sketch=0;hachureGap=4;jiggle=2;curveFitting=1;html=1;entryX=0;entryY=0.5;entryDx=0;entryDy=0;strokeColor=#FFFF00;strokeWidth=6;fontFamily=Architects Daughter;fontSource=https%3A%2F%2Ffonts.googleapis.com%2Fcss%3Ffamily%3DArchitects%2BDaughter;fontSize=45;fontColor=#000000;startArrow=none;startFill=0;endArrow=classic;endFill=1;rounded=1;" parent="1" target="node8" edge="1">
                    <mxGeometry relative="1" as="geometry">
                        <mxPoint x="-2917" y="-710" as="sourcePoint"/>
                        <Array as="points">
                            <mxPoint x="-2920" y="-490"/>
                        </Array>
                    </mxGeometry>
                </mxCell>
                <mxCell id="114" style="edgeStyle=none;rounded=1;sketch=0;hachureGap=4;jiggle=2;curveFitting=1;html=1;exitX=0.383;exitY=1;exitDx=0;exitDy=0;entryX=1;entryY=0.5;entryDx=0;entryDy=0;strokeColor=#FFFF00;strokeWidth=6;fontFamily=Architects Daughter;fontSource=https%3A%2F%2Ffonts.googleapis.com%2Fcss%3Ffamily%3DArchitects%2BDaughter;fontSize=45;fontColor=#66B2FF;startArrow=none;startFill=0;endArrow=classic;endFill=1;exitPerimeter=0;" parent="1" source="node0" target="104" edge="1">
                    <mxGeometry relative="1" as="geometry">
                        <Array as="points">
                            <mxPoint x="-3000" y="-490"/>
                        </Array>
                    </mxGeometry>
                </mxCell>
                <mxCell id="node0" value="&lt;p style=&quot;margin:0px;margin-top:4px;text-align:center;&quot;&gt;&lt;font size=&quot;1&quot; color=&quot;#000000&quot;&gt;&lt;b style=&quot;font-size: 69px;&quot;&gt;Pipeline&lt;/b&gt;&lt;/font&gt;&lt;/p&gt;" style="verticalAlign=top;align=left;overflow=fill;fontSize=14;fontFamily=Helvetica;html=1;rounded=1;shadow=0;comic=0;labelBackgroundColor=none;strokeWidth=1;fillStyle=auto;gradientColor=none;fillColor=#CCCC00;strokeColor=#000066;" parent="1" vertex="1">
                    <mxGeometry x="-3135.75" y="-790" width="354.5" height="100" as="geometry"/>
                </mxCell>
                <mxCell id="node20" value="&lt;p style=&quot;margin:0px;margin-top:4px;text-align:center;&quot;&gt;&lt;b&gt;&lt;font style=&quot;font-size: 45px;&quot; color=&quot;#b266ff&quot;&gt;FeatureEngineering&lt;/font&gt;&lt;/b&gt;&lt;/p&gt;" style="verticalAlign=top;align=left;overflow=fill;fontSize=14;fontFamily=Helvetica;html=1;rounded=1;shadow=0;comic=0;labelBackgroundColor=none;strokeWidth=6;strokeColor=#B266FF;" parent="1" vertex="1">
                    <mxGeometry x="-4860" y="-387" width="470" height="67" as="geometry"/>
                </mxCell>
                <mxCell id="node21" value="&lt;p style=&quot;margin:0px;margin-top:4px;text-align:center;&quot;&gt;&lt;b&gt;&lt;font color=&quot;#b266ff&quot; style=&quot;font-size: 45px;&quot;&gt;Manipulations&lt;/font&gt;&lt;/b&gt;&lt;/p&gt;" style="verticalAlign=top;align=left;overflow=fill;fontSize=14;fontFamily=Helvetica;html=1;rounded=1;shadow=0;comic=0;labelBackgroundColor=none;strokeWidth=6;strokeColor=#B266FF;" parent="1" vertex="1">
                    <mxGeometry x="-4410" y="-750" width="371" height="60" as="geometry"/>
                </mxCell>
                <mxCell id="node22" value="&lt;p style=&quot;margin:0px;margin-top:4px;text-align:center;&quot;&gt;&lt;b&gt;&lt;font style=&quot;font-size: 45px;&quot; color=&quot;#b266ff&quot;&gt;MyOneHotEncoder&lt;/font&gt;&lt;/b&gt;&lt;/p&gt;" style="verticalAlign=top;align=left;overflow=fill;fontSize=14;fontFamily=Helvetica;html=1;rounded=1;shadow=0;comic=0;labelBackgroundColor=none;strokeWidth=6;strokeColor=#B266FF;" parent="1" vertex="1">
                    <mxGeometry x="-4360" y="-320" width="470" height="65" as="geometry"/>
                </mxCell>
                <mxCell id="node23" value="&lt;p style=&quot;margin:0px;margin-top:4px;text-align:center;&quot;&gt;&lt;b&gt;&lt;font style=&quot;font-size: 45px;&quot; color=&quot;#b266ff&quot;&gt;StandardScaler&lt;/font&gt;&lt;/b&gt;&lt;/p&gt;" style="verticalAlign=top;align=left;overflow=fill;fontSize=14;fontFamily=Helvetica;html=1;rounded=1;shadow=0;comic=0;labelBackgroundColor=none;strokeWidth=6;strokeColor=#B266FF;" parent="1" vertex="1">
                    <mxGeometry x="-4840" y="-680" width="390" height="59" as="geometry"/>
                </mxCell>
                <mxCell id="23" style="edgeStyle=none;curved=1;hachureGap=4;html=1;strokeColor=#FFFFFF;strokeWidth=6;fontFamily=Architects Daughter;fontSource=https%3A%2F%2Ffonts.googleapis.com%2Fcss%3Ffamily%3DArchitects%2BDaughter;fontSize=45;fontColor=#000000;startArrow=none;startFill=0;endArrow=classic;endFill=1;fillColor=#f5f5f5;exitX=0.5;exitY=1;exitDx=0;exitDy=0;entryX=0.5;entryY=0;entryDx=0;entryDy=0;" parent="1" source="18" target="node9" edge="1">
                    <mxGeometry relative="1" as="geometry">
                        <mxPoint x="-2970" y="-333" as="sourcePoint"/>
                        <mxPoint x="-2970" y="-123" as="targetPoint"/>
                    </mxGeometry>
                </mxCell>
                <mxCell id="18" value="&lt;p style=&quot;margin:0px;margin-top:4px;text-align:center;&quot;&gt;&lt;b style=&quot;font-size: 45px;&quot;&gt;&lt;font color=&quot;#000000&quot;&gt;Feature Selection&lt;/font&gt;&lt;/b&gt;&lt;/p&gt;" style="verticalAlign=top;align=left;overflow=fill;fontSize=14;fontFamily=Helvetica;html=1;rounded=1;shadow=0;comic=0;labelBackgroundColor=none;strokeWidth=1;fillColor=#FFFFFF;fontColor=#ffffff;strokeColor=#001DBC;rotation=0;" parent="1" vertex="1">
                    <mxGeometry x="-3175.62" y="-393" width="434.25" height="60" as="geometry"/>
                </mxCell>
                <mxCell id="28" value="&lt;p style=&quot;margin:0px;margin-top:4px;text-align:center;&quot;&gt;&lt;b&gt;&lt;font color=&quot;#66b2ff&quot; style=&quot;font-size: 45px;&quot;&gt;GradientBoostingModel&lt;/font&gt;&lt;/b&gt;&lt;/p&gt;" style="verticalAlign=top;align=left;overflow=fill;fontSize=14;fontFamily=Helvetica;html=1;rounded=1;shadow=0;comic=0;labelBackgroundColor=none;strokeWidth=6;strokeColor=#66B2FF;" parent="1" vertex="1">
                    <mxGeometry x="-1440" y="-300" width="570" height="60" as="geometry"/>
                </mxCell>
                <mxCell id="32" value="&lt;p style=&quot;margin:0px;margin-top:4px;text-align:center;&quot;&gt;&lt;b&gt;&lt;font color=&quot;#66b2ff&quot; style=&quot;font-size: 45px;&quot;&gt;DecisionTreeModel&lt;/font&gt;&lt;/b&gt;&lt;/p&gt;" style="verticalAlign=top;align=left;overflow=fill;fontSize=14;fontFamily=Helvetica;html=1;rounded=1;shadow=0;comic=0;labelBackgroundColor=none;strokeWidth=6;strokeColor=#66B2FF;" parent="1" vertex="1">
                    <mxGeometry x="-2130" y="-300" width="520" height="60" as="geometry"/>
                </mxCell>
                <mxCell id="37" value="&lt;p style=&quot;margin:0px;margin-top:4px;text-align:center;&quot;&gt;&lt;b&gt;&lt;font color=&quot;#66b2ff&quot; style=&quot;font-size: 45px;&quot;&gt;AdaBoostModel&lt;/font&gt;&lt;/b&gt;&lt;/p&gt;" style="verticalAlign=top;align=left;overflow=fill;fontSize=14;fontFamily=Helvetica;html=1;rounded=1;shadow=0;comic=0;labelBackgroundColor=none;strokeWidth=6;strokeColor=#66B2FF;" parent="1" vertex="1">
                    <mxGeometry x="-1740" y="-880" width="410" height="60" as="geometry"/>
                </mxCell>
                <mxCell id="39" value="&lt;p style=&quot;margin:0px;margin-top:4px;text-align:center;&quot;&gt;&lt;b&gt;&lt;font color=&quot;#66b2ff&quot; style=&quot;font-size: 45px;&quot;&gt;CatBoostModel&lt;/font&gt;&lt;/b&gt;&lt;/p&gt;" style="verticalAlign=top;align=left;overflow=fill;fontSize=14;fontFamily=Helvetica;html=1;rounded=1;shadow=0;comic=0;labelBackgroundColor=none;strokeWidth=6;strokeColor=#66B2FF;" parent="1" vertex="1">
                    <mxGeometry x="-1710" y="-180" width="410" height="60" as="geometry"/>
                </mxCell>
                <mxCell id="116" style="edgeStyle=none;rounded=1;sketch=0;hachureGap=4;jiggle=2;curveFitting=1;html=1;strokeColor=#B266FF;strokeWidth=6;fontFamily=Architects Daughter;fontSource=https%3A%2F%2Ffonts.googleapis.com%2Fcss%3Ffamily%3DArchitects%2BDaughter;fontSize=45;fontColor=#000000;startArrow=none;startFill=0;endArrow=classic;endFill=1;" parent="1" source="104" target="115" edge="1">
                    <mxGeometry relative="1" as="geometry"/>
                </mxCell>
                <mxCell id="104" value="&lt;p style=&quot;margin:0px;margin-top:4px;text-align:center;&quot;&gt;&lt;font color=&quot;#000000&quot; style=&quot;font-size: 45px;&quot;&gt;&lt;b&gt;Preprocessing&lt;/b&gt;&lt;/font&gt;&lt;/p&gt;" style="verticalAlign=top;align=left;overflow=fill;fontSize=14;fontFamily=Helvetica;html=1;rounded=1;shadow=0;comic=0;labelBackgroundColor=none;strokeWidth=6;strokeColor=#B266FF;rotation=0;fillColor=#B266FF;fontColor=#ffffff;" parent="1" vertex="1">
                    <mxGeometry x="-3538.62" y="-520" width="363" height="60" as="geometry"/>
                </mxCell>
                <mxCell id="118" style="edgeStyle=none;rounded=1;sketch=0;hachureGap=4;jiggle=2;curveFitting=1;html=1;entryX=0.5;entryY=1;entryDx=0;entryDy=0;strokeColor=#B266FF;strokeWidth=6;fontFamily=Architects Daughter;fontSource=https%3A%2F%2Ffonts.googleapis.com%2Fcss%3Ffamily%3DArchitects%2BDaughter;fontSize=45;fontColor=#B266FF;startArrow=none;startFill=0;endArrow=classic;endFill=1;" parent="1" source="115" target="node21" edge="1">
                    <mxGeometry relative="1" as="geometry">
                        <Array as="points">
                            <mxPoint x="-3978" y="-640"/>
                            <mxPoint x="-4224" y="-640"/>
                        </Array>
                    </mxGeometry>
                </mxCell>
                <mxCell id="119" style="edgeStyle=none;rounded=1;sketch=0;hachureGap=4;jiggle=2;curveFitting=1;html=1;entryX=0.5;entryY=0;entryDx=0;entryDy=0;strokeColor=#B266FF;strokeWidth=6;fontFamily=Architects Daughter;fontSource=https%3A%2F%2Ffonts.googleapis.com%2Fcss%3Ffamily%3DArchitects%2BDaughter;fontSize=45;fontColor=#B266FF;startArrow=none;startFill=0;endArrow=classic;endFill=1;" parent="1" source="115" target="node22" edge="1">
                    <mxGeometry relative="1" as="geometry">
                        <Array as="points">
                            <mxPoint x="-3978" y="-370"/>
                            <mxPoint x="-4125" y="-370"/>
                        </Array>
                    </mxGeometry>
                </mxCell>
                <mxCell id="120" style="edgeStyle=none;rounded=1;sketch=0;hachureGap=4;jiggle=2;curveFitting=1;html=1;entryX=0.5;entryY=1;entryDx=0;entryDy=0;strokeColor=#B266FF;strokeWidth=6;fontFamily=Architects Daughter;fontSource=https%3A%2F%2Ffonts.googleapis.com%2Fcss%3Ffamily%3DArchitects%2BDaughter;fontSize=45;fontColor=#B266FF;startArrow=none;startFill=0;endArrow=classic;endFill=1;exitX=0.25;exitY=0;exitDx=0;exitDy=0;" parent="1" source="115" target="node23" edge="1">
                    <mxGeometry relative="1" as="geometry">
                        <Array as="points">
                            <mxPoint x="-4114" y="-560"/>
                            <mxPoint x="-4280" y="-560"/>
                            <mxPoint x="-4645" y="-560"/>
                        </Array>
                    </mxGeometry>
                </mxCell>
                <mxCell id="121" style="edgeStyle=none;rounded=1;sketch=0;hachureGap=4;jiggle=2;curveFitting=1;html=1;entryX=0.5;entryY=0;entryDx=0;entryDy=0;strokeColor=#B266FF;strokeWidth=6;fontFamily=Architects Daughter;fontSource=https%3A%2F%2Ffonts.googleapis.com%2Fcss%3Ffamily%3DArchitects%2BDaughter;fontSize=45;fontColor=#B266FF;startArrow=none;startFill=0;endArrow=classic;endFill=1;exitX=0.25;exitY=1;exitDx=0;exitDy=0;" parent="1" source="115" target="node20" edge="1">
                    <mxGeometry relative="1" as="geometry">
                        <Array as="points">
                            <mxPoint x="-4114" y="-420"/>
                            <mxPoint x="-4625" y="-420"/>
                        </Array>
                    </mxGeometry>
                </mxCell>
                <mxCell id="115" value="&lt;p style=&quot;margin:0px;margin-top:4px;text-align:center;&quot;&gt;&lt;font style=&quot;font-size: 45px;&quot;&gt;AbstractPreprocessor&lt;/font&gt;&lt;/p&gt;" style="verticalAlign=top;align=left;overflow=fill;fontSize=14;fontFamily=Helvetica;html=1;rounded=1;shadow=0;comic=0;labelBackgroundColor=none;strokeWidth=6;strokeColor=#B266FF;rotation=0;fillColor=#000000;fontColor=#B266FF;fontStyle=1" parent="1" vertex="1">
                    <mxGeometry x="-4250" y="-520" width="544.38" height="60" as="geometry"/>
                </mxCell>
            </root>
        </mxGraphModel>
    </diagram>
</mxfile>